REM DIRINDEX 1\2,1\3,1\4,1\5
REM DIRNAME cjc004,folder01,folder02,folder03,folder04
TITLE ""
FILE "1Q_t_0770-0779.mp3" MP3
  TRACK 01 AUDIO
    TITLE "3:cjc004_3213"
    INDEX 01 00:00:00
  TRACK 02 AUDIO
    TITLE "0:"
    INDEX 01 00:00:74
  TRACK 03 AUDIO
    TITLE "4:cjc004_3214"
    INDEX 01 00:01:26
  TRACK 04 AUDIO
    TITLE "0:"
    INDEX 01 00:02:61
  TRACK 05 AUDIO
    TITLE "5:cjc004_3215"
    INDEX 01 00:03:08
  TRACK 06 AUDIO
    TITLE "0:"
    INDEX 01 00:06:63
  TRACK 07 AUDIO
    TITLE "3:cjc004_3216"
    INDEX 01 00:07:47
  TRACK 08 AUDIO
    TITLE "0:"
    INDEX 01 00:08:73
  TRACK 09 AUDIO
    TITLE "4:cjc004_3217"
    INDEX 01 00:09:02
  TRACK 10 AUDIO
    TITLE "0:"
    INDEX 01 00:10:02
  TRACK 11 AUDIO
    TITLE "5:cjc004_3218"
    INDEX 01 00:10:29
  TRACK 12 AUDIO
    TITLE "0:"
    INDEX 01 00:14:51
  TRACK 13 AUDIO
    TITLE "3:cjc004_3219"
    INDEX 01 00:15:32
  TRACK 14 AUDIO
    TITLE "0:"
    INDEX 01 00:16:38
  TRACK 15 AUDIO
    TITLE "4:cjc004_3220"
    INDEX 01 00:16:51
  TRACK 16 AUDIO
    TITLE "0:"
    INDEX 01 00:17:51
  TRACK 17 AUDIO
    TITLE "5:cjc004_3221"
    INDEX 01 00:17:72
  TRACK 18 AUDIO
    TITLE "0:"
    INDEX 01 00:22:42
  TRACK 19 AUDIO
    TITLE "3:cjc004_3222"
    INDEX 01 00:23:22
  TRACK 20 AUDIO
    TITLE "0:"
    INDEX 01 00:24:33
  TRACK 21 AUDIO
    TITLE "4:cjc004_3223"
    INDEX 01 00:24:43
  TRACK 22 AUDIO
    TITLE "0:"
    INDEX 01 00:25:58
  TRACK 23 AUDIO
    TITLE "5:cjc004_3224"
    INDEX 01 00:26:11
  TRACK 24 AUDIO
    TITLE "0:"
    INDEX 01 00:31:00
  TRACK 25 AUDIO
    TITLE "3:cjc004_3225"
    INDEX 01 00:31:53
  TRACK 26 AUDIO
    TITLE "0:"
    INDEX 01 00:32:70
  TRACK 27 AUDIO
    TITLE "4:cjc004_3226"
    INDEX 01 00:33:09
  TRACK 28 AUDIO
    TITLE "0:"
    INDEX 01 00:34:28
  TRACK 29 AUDIO
    TITLE "5:cjc004_3227"
    INDEX 01 00:34:53
  TRACK 30 AUDIO
    TITLE "0:"
    INDEX 01 00:39:60
  TRACK 31 AUDIO
    TITLE "3:cjc004_3228"
    INDEX 01 00:40:38
  TRACK 32 AUDIO
    TITLE "0:"
    INDEX 01 00:41:63
  TRACK 33 AUDIO
    TITLE "4:cjc004_3229"
    INDEX 01 00:42:10
  TRACK 34 AUDIO
    TITLE "0:"
    INDEX 01 00:43:31
  TRACK 35 AUDIO
    TITLE "5:cjc004_3230"
    INDEX 01 00:43:54
  TRACK 36 AUDIO
    TITLE "0:"
    INDEX 01 00:48:32
  TRACK 37 AUDIO
    TITLE "3:cjc004_3231"
    INDEX 01 00:49:06
  TRACK 38 AUDIO
    TITLE "0:"
    INDEX 01 00:50:23
  TRACK 39 AUDIO
    TITLE "4:cjc004_3232"
    INDEX 01 00:50:46
  TRACK 40 AUDIO
    TITLE "0:"
    INDEX 01 00:51:46
  TRACK 41 AUDIO
    TITLE "5:cjc004_3233"
    INDEX 01 00:52:00
  TRACK 42 AUDIO
    TITLE "0:"
    INDEX 01 00:55:69
  TRACK 43 AUDIO
    TITLE "3:cjc004_3234"
    INDEX 01 00:56:41
  TRACK 44 AUDIO
    TITLE "0:"
    INDEX 01 00:57:62
  TRACK 45 AUDIO
    TITLE "4:cjc004_3235"
    INDEX 01 00:58:13
  TRACK 46 AUDIO
    TITLE "0:"
    INDEX 01 00:59:43
  TRACK 47 AUDIO
    TITLE "5:cjc004_3236"
    INDEX 01 00:59:67
  TRACK 48 AUDIO
    TITLE "0:"
    INDEX 01 01:04:17
  TRACK 49 AUDIO
    TITLE "3:cjc004_3237"
    INDEX 01 01:04:70
  TRACK 50 AUDIO
    TITLE "0:"
    INDEX 01 01:05:71
  TRACK 51 AUDIO
    TITLE "4:cjc004_3238"
    INDEX 01 01:06:20
  TRACK 52 AUDIO
    TITLE "0:"
    INDEX 01 01:07:29
  TRACK 53 AUDIO
    TITLE "5:cjc004_3239"
    INDEX 01 01:07:55
  TRACK 54 AUDIO
    TITLE "0:"
    INDEX 01 01:12:58
  TRACK 55 AUDIO
    TITLE "3:cjc004_3240"
    INDEX 01 01:13:40
  TRACK 56 AUDIO
    TITLE "0:"
    INDEX 01 01:14:55
  TRACK 57 AUDIO
    TITLE "4:cjc004_3241"
    INDEX 01 01:15:05
  TRACK 58 AUDIO
    TITLE "0:"
    INDEX 01 01:16:20
  TRACK 59 AUDIO
    TITLE "5:cjc004_3242"
    INDEX 01 01:16:44
  TRACK 60 AUDIO
    TITLE "0:"
    INDEX 01 01:20:48
